<svg xmlns="http://www.w3.org/2000/svg" width="1740.066" height="317.2294" viewBox="0 0 1740.066 317.22939"><g style="fill:#b7a99f;fill-opacity:1"><path d="M0 0h1.026v-2.432H3.82V0h1.029v-5.851H3.82v2.466H1.026v-2.466H0Z" style="fill:#b7a99f;fill-opacity:1;fill-rule:nonzero;stroke:none" transform="matrix(19.08938 0 0 -18.97466 1080.12 105.682)"/></g><g style="fill:#b7a99f;fill-opacity:1"><path d="M0 0v.015c0 1.647 1.271 3.027 3.069 3.027 1.795 0 3.05-1.361 3.05-3.008V.015c0-1.645-1.271-3.028-3.068-3.028C1.252-3.013 0-1.649 0 0m5.042 0v.015c0 1.137-.828 2.082-1.991 2.082-1.163 0-1.974-.927-1.974-2.063V.015c0-1.137.829-2.08 1.992-2.08 1.161 0 1.973.927 1.973 2.065" style="fill:#b7a99f;fill-opacity:1;fill-rule:nonzero;stroke:none" transform="matrix(18.54304 0 0 -18.97466 1202.6 161.494)"/></g><g style="fill:#b7a99f;fill-opacity:1"><path d="M0 0h-1.854v.952h4.746V0H1.038v-4.898H0Z" style="fill:#b7a99f;fill-opacity:1;fill-rule:nonzero;stroke:none" transform="matrix(18.48862 0 0 -18.97466 1367.21 123.748)"/></g><g style="fill:#b7a99f;fill-opacity:1"><path d="M0 0h4.338v-.92H1.026v-1.52h2.936v-.919H1.026v-1.574H4.38v-.918H0Z" style="fill:#b7a99f;fill-opacity:1;fill-rule:nonzero;stroke:none" transform="matrix(18.14082 0 0 -18.97466 1448.065 105.682)"/></g><g style="fill:#b7a99f;fill-opacity:1"><path d="M0 0h1.025v-4.914h3.077v-.937H0Z" style="fill:#b7a99f;fill-opacity:1;fill-rule:nonzero;stroke:none" transform="matrix(18.93811 0 0 -18.97466 1558.716 105.682)"/></g><g style="fill:#b7a99f;fill-opacity:1"><path d="m0 0 .621.737C1.18.25 1.74-.024 2.47-.024c.631 0 1.034.292 1.034.735v.018c0 .415-.233.644-1.32.893-1.247.301-1.95.666-1.95 1.747v.017c0 1.002.837 1.698 2 1.698.853 0 1.53-.259 2.121-.736l-.549-.778c-.527.393-1.052.602-1.59.602-.601 0-.951-.311-.951-.693v-.017c0-.452.265-.653 1.386-.92C3.889 2.24 4.53 1.8 4.53.827V.811c0-1.094-.86-1.748-2.088-1.748C1.55-.937.704-.627 0 0" style="fill:#b7a99f;fill-opacity:1;fill-rule:nonzero;stroke:none" transform="matrix(18.23861 0 0 -18.97466 1657.445 200.536)"/></g><g style="fill:#b7a99f;fill-opacity:1"><g style="fill:#b7a99f;fill-opacity:1"><path d="M0 0c-7.035 0-11.251-4.351-11.251-9.719 0-5.371 4.216-9.718 11.251-9.718 7.044 0 11.264 4.347 11.264 9.718C11.264-4.351 7.044 0 0 0m0-17.354c-3.37 0-5.935 3.424-5.935 7.635 0 4.215 2.565 7.628 5.935 7.628 3.383 0 5.943-3.413 5.943-7.628 0-4.211-2.56-7.635-5.943-7.635" style="fill:#b7a99f;fill-opacity:1;fill-rule:nonzero;stroke:none" transform="matrix(6.16005 0 0 -6.22751 566.552 100.36)"/></g><g style="fill:#b7a99f;fill-opacity:1"><path d="M0 0h7.409v-15.761h5.581V0h6.263v2.153H0Z" style="fill:#b7a99f;fill-opacity:1;fill-rule:nonzero;stroke:none" transform="matrix(6.16005 0 0 -6.22751 641.862 118.235)"/></g><g style="fill:#b7a99f;fill-opacity:1"><path d="M0 0h6.246v-15.761h5.581V0h7.417v2.153H0Z" style="fill:#b7a99f;fill-opacity:1;fill-rule:nonzero;stroke:none" transform="matrix(6.16005 0 0 -6.22751 773.01 118.235)"/></g><g style="fill:#b7a99f;fill-opacity:1"><path d="M0 0v14.698h-5.361V-1.085c0-1.179.961-2.131 2.131-2.131h13.703v2.149H1.066A1.07 1.07 0 0 0 0 0" style="fill:#b7a99f;fill-opacity:1;fill-rule:nonzero;stroke:none" transform="matrix(6.16005 0 0 -6.22751 428.754 196.358)"/></g><g style="fill:#b7a99f;fill-opacity:1"><path d="M0 0v-13.652c0-1.177.958-2.13 2.137-2.13h14.604v2.114H6.433c-.59 0-1.072.478-1.072 1.069v5.276H16.58v2.101H5.361v4.172c0 .589.482 1.068 1.072 1.068h10.308v2.111H2.131A2.13 2.13 0 0 1 0 0" style="fill:#b7a99f;fill-opacity:1;fill-rule:nonzero;stroke:none" transform="matrix(6.16005 0 0 -6.22751 910.27 118.095)"/></g></g><path d="M0 0c-9.7-9.723-25.615-9.723-35.315 0L-53.26 17.92c-9.7 9.759-9.7 25.62 0 35.347l17.945 17.944c9.7 9.697 25.615 9.697 35.315 0l17.945-17.944c9.7-9.727 9.7-25.588 0-35.347z" style="fill:#b7a99f;fill-opacity:1;fill-rule:nonzero;stroke:none" transform="matrix(3.6904 0 0 -3.69835 223.398 290.26)"/><path d="M0 0c-1.426 0-2.577 1.125-2.66 2.579-.028.683.22 1.342.713 1.888a2.462 2.462 0 0 0 1.837.847c1.45.055 2.712-1.067 2.767-2.544C2.712 1.316 1.561.084.107 0Z" style="fill:#fff;fill-opacity:1;fill-rule:nonzero;stroke:none" transform="matrix(3.6904 0 0 -3.69835 118.961 256.106)"/><path d="M0 0c-1.451 0-2.601-.443-3.56-1.374-2.029-2.052-3.097-6.222-3.015-11.782.138-6.824 1.755-20.277 7.15-27.181.879-1.151 1.81-2.027 2.767-2.68.962-.662 2.029-1.26 3.701-1.26.437 0 .93.054 1.451.135 3.07.737 6.933 4.19 9.837 8.767.438.682 1.179 1.15 1.998 1.15.469 0 .88-.135 1.289-.384a2.455 2.455 0 0 0 1.041-1.503 2.479 2.479 0 0 0-.303-1.814c-3.642-5.753-8.463-9.833-12.874-10.844-.027 0-.055-.03-.082-.03a14.195 14.195 0 0 0-2.357-.193c-2.85 0-4.879 1.069-6.302 2-1.423.938-2.712 2.192-3.918 3.698-7.588 9.752-8.111 28.003-8.139 30.055-.082 4.881.63 11.427 4.414 15.237C-5.041 3.805-2.74 4.761 0 4.761h.441c2.74 0 5.065-.956 6.901-2.764 3.808-3.81 4.494-10.356 4.415-15.237-.083-5.065-1.017-14.872-6.251-23.671-.438-.682-1.23-1.15-2.054-1.15-.437 0-.848.135-1.233.329a2.431 2.431 0 0 0-.82 3.288c3.669 6.167 5.451 12.936 5.616 21.288.083 5.56-.985 9.73-3.042 11.782C3.043-.443 1.892 0 .441 0Z" style="fill:#fff;fill-opacity:1;fill-rule:nonzero;stroke:none" transform="matrix(3.6904 0 0 -3.69835 154.542 74.91)"/></svg>