<svg xmlns="http://www.w3.org/2000/svg" xml:space="preserve" width="589.466" height="105.023" viewBox="0 0 589.466 105.023"><path d="M8.121 103.972v-13.52h55.51c3.206 0 5.98-1.105 8.32-3.315s3.51-4.918 3.51-8.125c0-3.205-1.149-5.915-3.445-8.125-2.297-2.21-5.092-3.315-8.385-3.315H29.96c-8.755 0-15.297-3.683-19.63-11.05-2.08-3.553-3.12-7.365-3.12-11.439 0-6.153 2.188-11.44 6.565-15.86 4.375-4.42 9.685-6.63 15.925-6.63h56.55v13.13H30.202c-2.683 0-4.977.918-6.878 2.75-1.903 1.833-2.854 4.059-2.854 6.675 0 2.706.95 4.975 2.854 6.807 1.904 1.832 4.197 2.749 6.878 2.749h34.255c9.862 0 17.127 4.117 21.799 12.35 2.162 3.814 3.244 7.888 3.244 12.22 0 7.28-2.492 13.218-7.475 17.811-4.984 4.595-11.072 6.89-18.265 6.89H8.121zM107.049 22.592v45.63c0 7.888.563 13.348 1.69 16.38 2.08 5.548 6.413 8.32 13 8.32 4.42 0 8.015-1.516 10.79-4.55 2.773-3.033 4.16-6.761 4.16-11.181v-54.6h13v54.6c0 4.335 1.365 8.04 4.095 11.115 2.73 3.077 6.26 4.615 10.595 4.615 4.505 0 8.081-1.495 10.725-4.485 2.643-2.99 3.965-6.737 3.965-11.245v-54.6h13.26V76.28c0 7.888-2.645 14.583-7.93 20.086-5.287 5.504-11.83 8.255-19.63 8.255-8.927 0-16.165-3.511-21.71-10.53-5.46 7.02-12.61 10.53-21.45 10.53-7.887 0-14.43-2.73-19.63-8.19-5.2-5.46-7.8-12.133-7.8-20.02v-53.82h12.87zM262.918 103.972v-69.68h-18.07c-8.32 0-15.385 2.774-21.19 8.319-5.807 5.548-8.71 12.438-8.71 20.67 0 8.235 2.86 15.103 8.58 20.605 5.72 5.505 12.695 8.255 20.93 8.255 4.94 0 9.49-1.17 13.65-3.51v13.13c-5.46 1.82-10.228 2.73-14.3 2.73-11.7 0-21.69-3.966-29.965-11.896-8.277-7.93-12.415-17.7-12.415-29.315 0-6.585 1.516-12.869 4.55-18.85 3.64-6.933 8.752-12.306 15.34-16.12 6.585-3.813 13.865-5.72 21.84-5.72h32.37v81.38h-12.61zM282.937 1.142h12.87v21.45h28.21v12.09h-28.21v40.079c0 1.21.367 2.983 1.104 5.319.735 2.336 1.45 3.978 2.146 4.928 3.38 4.758 9.359 7.134 17.939 7.134H326.617v11.83c-.52 0-3.295.045-8.32.13-3.727.088-6.76.088-9.1 0-3.295-.26-6.11-.735-8.45-1.428-5.287-1.471-9.577-4.457-12.87-8.958-3.294-4.501-4.939-9.521-4.939-15.062V1.142zM395.515 45.472c-7.367-7.973-15.558-11.96-24.57-11.96-8.06 0-14.994 2.947-20.8 8.84-5.808 5.895-8.71 12.915-8.71 21.061 0 8.06 2.902 14.972 8.71 20.734 5.806 5.765 12.74 8.646 20.8 8.646 6.153 0 11.721-1.646 16.705-4.94 4.982-3.293 8.516-7.755 10.596-13.39l8.84 8.45c-7.888 14.819-19.328 22.229-34.32 22.229-12.395 0-22.75-3.813-31.07-11.439-8.667-7.886-13-17.983-13-30.29 0-11.873 4.115-21.841 12.351-29.9 8.232-8.06 18.372-12.09 30.42-12.09 14.819 0 26.26 5.677 34.319 17.03l-10.271 7.019zM482.485 57.042v46.93h-12.87v-46.28c0-6.76-2.174-12.479-6.519-17.16-4.347-4.68-9.908-7.02-16.687-7.02-6.78 0-12.342 2.319-16.687 6.955-4.348 4.638-6.519 10.38-6.519 17.225v46.28h-13.26V1.142h13.26v29.9c4.343-3.38 8.121-5.721 11.334-7.021 3.908-1.732 8.251-2.6 13.028-2.6 9.729 0 17.979 3.489 24.755 10.465 6.776 6.978 10.165 15.363 10.165 25.156z"/><path d="M502.167 20.012h82v82h-82z" style="fill:#f80f08"/><path d="M530.75 23.512h24.834v75H530.75z" style="fill:#fff"/><path d="M505.667 48.595h75v24.834h-75z" style="fill:#fff"/><path d="M476.364.627c1.731 0 3.422.444 5.072 1.333a9.476 9.476 0 0 1 3.855 3.814c.92 1.654 1.381 3.379 1.381 5.175 0 1.777-.453 3.486-1.36 5.127a9.592 9.592 0 0 1-3.814 3.821c-1.635.907-3.348 1.36-5.134 1.36-1.787 0-3.498-.453-5.134-1.36a9.634 9.634 0 0 1-3.821-3.821c-.912-1.641-1.367-3.35-1.367-5.127 0-1.796.463-3.521 1.388-5.175.925-1.654 2.212-2.926 3.862-3.814 1.649-.889 3.339-1.333 5.072-1.333zm0 1.709c-1.449 0-2.859.371-4.231 1.114a7.995 7.995 0 0 0-3.22 3.186c-.775 1.381-1.162 2.818-1.162 4.313 0 1.485.381 2.91 1.142 4.272a8.104 8.104 0 0 0 3.192 3.186c1.367.761 2.793 1.142 4.279 1.142 1.485 0 2.912-.381 4.279-1.142a8.057 8.057 0 0 0 3.186-3.186c.756-1.362 1.135-2.787 1.135-4.272 0-1.495-.385-2.933-1.155-4.313a7.952 7.952 0 0 0-3.22-3.186c-1.378-.743-2.786-1.114-4.225-1.114zm-4.526 14.314V5.549h3.814c1.303 0 2.246.103 2.83.308a2.75 2.75 0 0 1 1.395 1.073c.346.511.52 1.053.52 1.627 0 .812-.289 1.518-.868 2.119-.579.601-1.347.938-2.304 1.012.392.164.706.36.943.588.446.438.993 1.171 1.641 2.201l1.354 2.174h-2.188l-.984-1.75c-.775-1.376-1.399-2.237-1.873-2.584-.328-.255-.807-.383-1.436-.383h-1.053v4.717h-1.791zm1.791-6.248h2.174c1.039 0 1.748-.155 2.126-.465.378-.31.567-.72.567-1.23 0-.328-.092-.622-.273-.882a1.638 1.638 0 0 0-.759-.581c-.323-.128-.923-.191-1.798-.191h-2.037v3.349z"/></svg>