<svg xmlns="http://www.w3.org/2000/svg" xml:space="preserve" width="918.79425" height="167.93658" viewBox="0 0 918.79423 167.93659"><defs><clipPath id="a" clipPathUnits="userSpaceOnUse"><path d="M0 291.335h841.89V0H0Z"/></clipPath></defs><g clip-path="url(#a)" style="stroke-width:.724123" transform="matrix(1.8413 0 0 -1.8413 -315.692 352.187)"><g style="stroke-width:.724123"><path d="M0 0c-.593 1.615-1.236 10.848-1.296 12.733-.152 9.1-.16 45.367.008 55.341.053 1.801.691 11.149 1.288 12.776l.11.304c.14.382-.215.764-.712.764h-1.263v-.001l-.007.001h-15.144c-.495 0-.852-.382-.712-.764l.112-.304c.595-1.627 1.215-10.972 1.266-12.775.168-9.975.161-46.246.009-55.347-.06-1.899-.683-11.114-1.275-12.728l-.112-.305c-.14-.382.217-.763.712-.763h15.141l.01.001v-.001h1.263c.497 0 .852.381.712.763z" style="fill:#231916;fill-opacity:1;fill-rule:nonzero;stroke:none;stroke-width:.724123" transform="translate(670.299 101.134)"/></g><g style="stroke-width:.724123"><path d="M0 0h-1.241l.001-.001-.009.001h-6.304c-.619 0-1.115-.422-1.079-.928.266-3.636.465-17.539.465-34.135 0-15.509-.173-27.771-.413-32.396-.029-.575-.947-.773-1.318-.283-5.644 7.458-10.369 14.43-18.731 26.222C-43.586-20.431-53.717-3.524-55.595-.474c-.181.295-.539.474-.943.474h-14.221c-.575 0-.747-.458-.593-.912.84-2.464 1.171-4.495 1.561-11.057.197-3.33.156-8.88.156-30.645 0-19.331-.217-35.489-.505-39.446-.037-.506.457-.926 1.077-.926h6.339c.62 0 1.114.422 1.077.927-.266 3.651-.465 17.641-.465 34.342 0 15.599.174 21.565.413 26.219.03.579.954.774 1.325.282 5.478-7.256 13.323-18.739 21.058-30.222 15.598-23.161 18.947-28 20.827-31.07.183-.299.55-.478.958-.478h16.282c.618 0 1.111.418 1.077.923-.271 3.947-.473 20.068-.473 39.355 0 10.601.061 20.974.161 28.827C-.256-7.042.001-2.706.589-1.068l.11.304C.835-.382.486 0 0 0" style="fill:#231916;fill-opacity:1;fill-rule:nonzero;stroke:none;stroke-width:.724123" transform="translate(358.87 183.052)"/></g><g style="stroke-width:.724123"><path d="M0 0h-1.24v-.001L-1.249 0h-6.304c-.619 0-1.116-.422-1.079-.928.267-3.636.465-17.539.465-34.135 0-15.509-.173-27.771-.412-32.396-.03-.575-.948-.773-1.319-.283-5.643 7.458-10.369 14.43-18.732 26.222C-43.587-20.431-53.717-3.524-55.595-.474c-.181.295-.54.474-.943.474h-14.221c-.576 0-.747-.458-.593-.912.84-2.464 1.171-4.495 1.561-11.057.197-3.33.155-8.88.155-30.645 0-19.331-.216-35.489-.504-39.446-.037-.506.457-.926 1.077-.926h6.339c.62 0 1.114.422 1.078.927-.267 3.651-.465 17.641-.465 34.342 0 15.599.173 21.565.412 26.219.03.579.954.774 1.326.282 5.477-7.256 13.322-18.739 21.057-30.222 15.598-23.161 18.947-28 20.827-31.07.182-.299.551-.478.958-.478h16.282c.618 0 1.111.418 1.076.923-.269 3.947-.473 20.068-.473 39.355 0 10.601.062 20.974.162 28.827C-.256-7.042.001-2.706.589-1.068l.109.304C.836-.382.486 0 0 0" style="fill:#231916;fill-opacity:1;fill-rule:nonzero;stroke:none;stroke-width:.724123" transform="translate(557.459 183.052)"/></g><g style="stroke-width:.724123"><path d="M0 0c-.41.662-1.284 1.047-2.192.968L-9.251.89C-14.009.803-21.559.767-31.47.767S-48.932.803-53.689.89l-7.059.078c-.908.079-1.781-.306-2.192-.968l-3.354-4.717c-.265-.428.173-.919.756-.843 2.688.351 4.076.755 20.062.754l5.114-.007c.566 0 1.046-.349 1.083-.807.293-3.57.513-21.393.513-39.32 0-8.863-.053-17-.143-23.397-.045-1.721-.516-11.178-1.109-12.814l-.111-.305c-.138-.381.216-.763.706-.763h16.242c.491 0 .844.382.705.763l-.11.305c-.594 1.636-1.08 11.094-1.124 12.814-.09 6.398-.144 14.534-.144 23.397 0 17.927.22 35.75.513 39.32.038.458.516.807 1.082.807l6.276.007C.003-4.805-.091-5.209 2.598-5.56c.584-.076 1.02.415.756.843z" style="fill:#231916;fill-opacity:1;fill-rule:nonzero;stroke:none;stroke-width:.724123" transform="translate(636.674 182.285)"/></g><g style="stroke-width:.724123"><path d="M0 0c-2.543-.035-7.61-.097-11.757-.099-5.159-.002-9.278.037-12.322.099-.782.016-1.281.668-.968 1.244 4.823 8.881 9.122 17.208 12.331 22.932.26.463 1.077.463 1.337 0C-8.167 18.448-3.864 10.114.964 1.224 1.273.654.773.011 0 0m47.055-47.421c-.135.679-5.261 6.309-17.217 26.503C19.755-3.885 2.402 30.213 1.244 33.253l-.002-.001c-.041.101-.095.241-.144.368a4 4 0 0 1-.128.305c-.293.535-.943.877-1.67.877h-16.385c-.587 0-.706-.448-.604-.912.245-1.121-1.36-4.586-2.391-6.668-3.448-6.834-21.38-39.877-22.763-42.425C-55.277-37.342-62.9-46.302-63.4-47.421c-.2-.449.216-.764.712-.764h10.364c.771 0 1.459.38 1.722.962 1.809 3.995 10.186 20.008 20.862 39.795.473.737 1.134 1.399 2.44 1.432 2.797.135 7.376.249 15.543.249 7.654 0 12.002-.082 14.95-.204.835-.045 1.778-.218 2.366-1.316 10.696-19.824 19.124-35.931 20.939-39.94.263-.581.949-.961 1.719-.961h1.884v-.017h16.242c.495 0 .852.382.712.764" style="fill:#231916;fill-opacity:1;fill-rule:nonzero;stroke:none;stroke-width:.724123" transform="translate(431.194 148.25)"/></g><g style="stroke-width:.724123"><path d="M0 0c-2.546-.035-6.639-.098-10.784-.099A616 616 0 0 0-23.123 0c-.775.017-1.269.659-.959 1.229 4.906 9.031 9.104 16.714 12.314 22.592a.588.588 0 0 0 1.022-.005C-7.581 17.913-4.158 11.024.968 1.224 1.267.652.776.011 0 0m45.829-47.402a3 3 0 0 1-.115.224c-1.259 2.269-15.168 23.904-28.547 49.15C10 15.611 4.476 25.698-2.235 41.703c-.31.739-.737 1.286-1.57 1.315h-.135l-23.932.002a.495.495 0 0 1-.507-.483v-1.84c0-.256.218-.468.487-.479 2.096-.081 4.197-.283 6.077-1.232 1.75-.882 3.177-2.266 4.203-3.868a10 10 0 0 0 1.047-2.154c.211-.621-.035-1.457-.321-2.05-3.804-7.874-23.664-43.686-24.99-46.129-12.43-22.13-20.051-31.088-20.551-32.206-.199-.449.217-.764.713-.764l10.374.017c.771 0 1.458.38 1.722.962 1.809 3.996 10.176 19.991 20.852 39.778.473.737 1.133 1.399 2.44 1.432 2.796.135 7.376.249 15.542.249 7.641 0 11.02-.128 13.965-.249 1.305-.033 1.965-.694 2.439-1.43 1.512-2.816 9.899-18.444 12.934-24.2 4.691-8.913 6.936-13.329 7.947-15.562.263-.582.95-.96 1.719-.96l16.897-.018c.495 0 .852.382.712.764" style="fill:#231916;fill-opacity:1;fill-rule:nonzero;stroke:none;stroke-width:.724123" transform="translate(233.928 148.25)"/></g></g></svg>